<?xml version="1.0" standalone="no"?>
<!DOCTYPE svg PUBLIC "-//W3C//DTD SVG 20010904//EN"
 "http://www.w3.org/TR/2001/REC-SVG-20010904/DTD/svg10.dtd">
<svg version="1.0" xmlns="http://www.w3.org/2000/svg"
 width="1280.000000pt" height="905.000000pt" viewBox="0 0 1280.000000 905.000000"
 preserveAspectRatio="xMidYMid meet">

<g transform="translate(0.000000,905.000000) scale(0.100000,-0.100000)"
fill="#000000" stroke="none">
<path d="M6395 8004 c-310 -48 -615 -188 -849 -389 -68 -59 -77 -70 -60 -76
10 -4 194 -8 407 -8 365 -1 395 0 490 21 134 29 389 31 515 4 191 -41 364
-119 515 -232 251 -188 427 -478 482 -791 19 -111 19 -326 0 -439 -74 -429
-380 -803 -785 -960 -170 -65 -243 -78 -450 -79 -141 0 -205 4 -270 18 -75 16
-133 17 -510 15 l-424 -3 104 -84 c133 -107 218 -161 355 -227 549 -264 1175
-219 1685 122 492 328 779 888 757 1474 -10 243 -61 455 -163 669 -117 245
-320 494 -532 649 -225 166 -491 275 -767 317 -124 18 -377 18 -500 -1z"/>
<path d="M3585 7268 c9 -63 77 -196 125 -248 l42 -45 -46 60 c-55 74 -63 95
-72 189 l-7 75 49 4 c39 3 33 4 -24 5 l-74 2 7 -42z"/>
<path d="M3760 6976 c0 -2 8 -10 18 -17 15 -13 16 -12 3 4 -13 16 -21 21 -21
13z"/>
<path d="M4034 6575 c-4 -9 -1 -37 6 -63 62 -247 298 -417 643 -462 55 -7 554
-10 1527 -8 l1445 3 13 50 c29 117 24 385 -9 473 l-9 22 -1805 0 c-1606 0
-1806 -2 -1811 -15z"/>
<path d="M4483 5816 c35 -256 304 -459 650 -491 l77 -7 0 94 c0 51 3 170 7
265 l6 172 131 4 c72 1 -96 4 -373 5 l-504 2 6 -44z"/>
<path d="M4045 4098 c-3 -7 -4 -470 -3 -1028 l3 -1015 163 -3 162 -2 -2 1027
-3 1028 -158 3 c-120 2 -159 0 -162 -10z"/>
<path d="M7441 4089 c-198 -53 -362 -210 -432 -415 l-24 -69 0 -520 c0 -513 0
-521 23 -592 59 -190 206 -342 395 -411 70 -25 80 -26 353 -30 l281 -3 -3 75
c-2 42 -6 110 -8 152 -2 51 -8 79 -17 85 -8 5 -108 9 -223 9 -255 0 -301 10
-377 78 -30 27 -62 68 -77 101 l-27 56 0 475 0 475 27 55 c31 64 84 119 148
152 41 20 65 24 258 32 l212 10 0 85 c0 47 -3 116 -7 154 l-6 67 -211 -1
c-178 0 -223 -3 -285 -20z"/>
<path d="M5185 4089 c-208 -31 -385 -159 -474 -339 -71 -147 -71 -135 -71
-962 l0 -738 160 0 160 0 0 709 c0 425 4 729 10 760 19 101 74 179 156 221
l49 25 500 0 c500 0 500 0 542 -23 60 -32 111 -86 142 -151 l26 -56 3 -742 3
-743 159 0 160 0 0 728 c-1 827 -1 832 -72 971 -30 60 -62 104 -112 155 -85
85 -160 131 -269 165 l-82 25 -465 2 c-256 1 -492 -2 -525 -7z"/>
<path d="M1417 4024 c-12 -12 -8 -1433 4 -1500 28 -155 141 -302 294 -381 125
-65 184 -77 370 -77 146 0 167 2 245 26 88 28 185 80 232 125 l27 26 39 -31
c60 -48 181 -109 252 -129 48 -13 105 -17 220 -17 132 -1 167 3 235 22 118 34
190 76 275 162 85 84 131 166 150 265 7 42 10 279 8 785 l-3 725 -157 3 -158
3 0 -711 c0 -492 -3 -725 -11 -756 -13 -51 -68 -113 -126 -143 -62 -31 -154
-44 -261 -38 -83 5 -105 10 -161 39 -71 36 -118 90 -130 149 l-7 34 -160 3
-160 2 -12 -47 c-17 -62 -89 -133 -158 -157 -68 -24 -204 -31 -292 -16 -82 14
-146 50 -196 113 l-31 39 -5 741 -5 742 -156 3 c-85 1 -158 -1 -162 -4z"/>
<path d="M2455 3537 c-3 -7 -4 -80 -3 -162 l3 -150 140 0 140 0 0 160 0 160
-138 3 c-107 2 -139 0 -142 -11z"/>
<path d="M5970 1541 l-45 -6 0 -250 0 -250 30 0 30 0 3 108 3 107 49 0 c71 0
95 -25 119 -122 23 -95 25 -98 63 -98 27 0 30 3 24 23 -3 12 -13 53 -22 90
-11 45 -26 80 -45 101 l-28 33 30 22 c56 42 72 123 36 183 -29 47 -143 75
-247 59z m153 -63 c33 -17 46 -39 47 -79 0 -61 -51 -99 -136 -99 l-44 0 0 95
0 95 56 0 c30 0 65 -5 77 -12z"/>
<path d="M7643 1540 c-161 -34 -246 -180 -199 -343 32 -111 114 -167 244 -167
40 0 93 5 118 11 l45 12 -3 121 -3 121 -80 0 c-75 0 -80 -1 -83 -22 -3 -21 0
-23 47 -23 l51 0 0 -80 c0 -77 -1 -80 -25 -86 -49 -12 -132 1 -173 28 -97 65
-110 237 -24 322 19 20 51 40 71 46 47 13 123 13 157 0 29 -12 44 -1 44 31 0
27 -114 44 -187 29z"/>
<path d="M9254 1539 c-18 -5 -46 -25 -63 -44 -26 -29 -31 -44 -31 -84 0 -64
23 -92 114 -136 88 -42 110 -64 110 -112 0 -72 -96 -107 -189 -69 -35 15 -45
9 -45 -29 0 -20 59 -40 121 -40 110 0 179 57 179 148 0 62 -32 98 -131 147
-103 52 -122 88 -77 145 21 27 23 27 99 22 78 -5 89 -1 89 33 0 24 -116 36
-176 19z"/>
<path d="M3540 1285 l0 -256 143 3 142 3 0 25 c0 25 0 25 -107 28 l-108 3 0
89 0 90 95 0 c95 0 95 0 95 25 0 25 0 25 -95 25 l-96 0 3 83 3 82 90 1 c122 2
117 1 113 27 -3 21 -6 22 -140 25 l-138 3 0 -256z"/>
<path d="M4290 1285 l0 -255 30 0 30 0 0 213 0 212 40 -70 c21 -38 79 -133
127 -210 81 -129 91 -140 121 -143 l32 -3 0 255 0 256 -31 0 -31 0 4 -203 3
-204 -41 71 c-51 89 -182 295 -202 319 -9 10 -29 17 -49 17 l-33 0 0 -255z"/>
<path d="M5110 1516 c0 -30 23 -39 93 -34 l52 3 5 -225 5 -225 33 -3 32 -3 0
225 0 226 24 6 c13 3 48 4 77 2 52 -3 54 -2 57 25 l3 27 -190 0 -191 0 0 -24z"/>
<path d="M6710 1285 l0 -256 143 3 142 3 0 25 c0 25 0 25 -107 28 l-106 3 -4
80 c-2 44 -1 84 0 89 2 6 45 10 98 10 94 0 94 0 94 25 0 25 0 25 -94 25 l-93
0 -6 63 c-10 108 -11 107 104 107 99 0 99 0 99 25 l0 25 -135 0 -135 0 0 -255z"/>
<path d="M8382 1302 c-45 -131 -82 -246 -82 -255 0 -20 43 -23 57 -4 6 6 20
43 33 80 l22 68 90 -3 91 -3 26 -75 c25 -72 28 -75 59 -78 32 -3 34 -2 27 25
-3 15 -41 129 -83 253 l-78 225 -40 3 -41 3 -81 -239z m156 60 c18 -54 32
-103 32 -110 0 -8 -22 -12 -70 -12 -38 0 -70 3 -70 8 0 15 65 212 70 212 3 0
20 -44 38 -98z"/>
</g>
</svg>
